<?xml version="1.0" encoding="UTF-8"?>
<svg xmlns="http://www.w3.org/2000/svg" xmlns:xlink="http://www.w3.org/1999/xlink" viewBox="0 0 64 64" width="64px" height="64px">
<g id="surface49818736">
<path style="fill-rule:nonzero;fill:rgb(0%,0%,0%);fill-opacity:1;stroke-width:14;stroke-linecap:butt;stroke-linejoin:round;stroke:rgb(80.000001%,80.000001%,80.000001%);stroke-opacity:1;stroke-miterlimit:10;" d="M 91.89732 15.824743 C 106.573607 41.33913 109.250044 53.177217 109.47063 134.308554 C 109.47063 136.426174 107.823591 137.720276 106.147142 137.720276 C 105.103037 137.720276 104.044227 137.220282 103.38247 136.087943 C 83.573895 102.500129 63.55944 67.015279 63.55944 52.353698 C 63.574145 28.633406 74.456362 15.236515 88.912063 14.133588 C 88.985592 14.133588 89.05912 14.118882 89.117943 14.118882 C 90.250282 14.118882 91.309092 14.81005 91.89732 15.824743 Z M 137.058519 14.133588 C 151.528927 15.221809 162.425849 28.603995 162.440555 52.353698 C 162.440555 67.029984 142.426099 102.514834 122.617524 136.087943 C 121.955767 137.220282 120.896957 137.720276 119.852853 137.720276 C 118.176403 137.720276 116.529365 136.426174 116.529365 134.308554 C 116.720539 53.118394 119.132273 40.897959 134.102674 15.780626 C 134.690902 14.795344 135.735007 14.118882 136.85264 14.118882 C 136.911463 14.118882 136.984991 14.133588 137.058519 14.133588 Z M 123.661628 120.352846 C 136.676171 97.941362 155.38182 64.221196 155.38182 52.353698 C 155.367114 35.280382 149.131898 23.76582 138.911437 21.530554 C 126.926293 42.074414 124.117505 54.265438 123.661628 120.352846 Z M 70.618175 52.353698 C 70.618175 64.221196 89.323823 97.926656 102.338366 120.338141 C 101.867784 55.103663 99.029584 42.839111 87.015028 21.530554 C 76.838685 23.809937 70.63288 35.324499 70.618175 52.353698 Z M 39.045041 47.618463 L 94.83846 139.661428 C 96.323735 142.11728 94.264938 144.779011 91.750263 144.779011 C 91.132624 144.779011 90.485573 144.617248 89.853228 144.249606 C 64.20649 128.95568 39.897971 117.294061 32.912764 110.411794 C 21.265851 98.661941 13.471831 63.912376 33.574521 46.750826 C 34.250983 46.177304 35.089208 45.912602 35.912727 45.912602 C 37.148006 45.912602 38.368578 46.515535 39.045041 47.618463 Z M 192.425473 46.750826 C 212.528163 63.912376 204.734143 98.661941 193.08723 110.411794 C 186.102023 117.294061 161.793504 128.95568 136.146766 144.249606 C 135.514421 144.617248 134.86737 144.779011 134.249731 144.779011 C 131.735057 144.779011 129.676259 142.11728 131.161534 139.661428 L 186.954954 47.618463 C 187.631416 46.515535 188.851989 45.912602 190.087267 45.912602 C 190.910787 45.912602 191.763717 46.177304 192.425473 46.750826 Z M 28.280469 74.73577 C 27.751064 87.823842 32.853942 100.323685 37.927408 105.441268 C 41.545009 109.014753 53.338979 115.544083 65.824117 122.455761 C 70.706409 125.16161 75.985755 128.073338 81.441569 131.17624 L 35.265676 55.015429 C 29.98633 61.221234 28.530466 68.956431 28.280469 74.73577 Z M 144.558426 131.17624 C 150.01424 128.073338 155.293585 125.16161 160.175877 122.455761 C 172.661015 115.544083 184.454985 109.014753 188.116704 105.382445 C 193.146053 100.323685 198.24893 87.823842 197.704819 74.73577 C 197.469528 68.956431 196.013664 61.221234 190.734318 55.015429 Z M 9.03071 109.955918 L 86.52974 152.793617 C 89.662054 154.528889 88.323835 158.911187 84.662117 158.911187 L 50.427251 158.911187 C 32.545122 158.911187 6.560153 149.161309 3.545485 113.014703 C 3.369017 110.985316 5.192523 109.47063 7.177792 109.47063 C 7.795432 109.47063 8.427777 109.617687 9.03071 109.955918 Z M 222.454509 113.014703 C 219.439841 149.161309 193.454872 158.911187 175.572743 158.911187 L 141.337878 158.911187 C 137.676159 158.911187 136.33794 154.528889 139.470254 152.793617 L 216.969284 109.955918 C 217.572217 109.617687 218.204563 109.47063 218.822202 109.47063 C 220.807471 109.47063 222.630978 110.985316 222.454509 113.014703 Z M 50.427251 151.837746 L 70.221121 151.837746 L 11.530679 119.396976 C 17.368841 149.367189 42.427351 151.837746 50.427251 151.837746 Z M 155.778873 151.837746 L 175.572743 151.837746 C 183.572643 151.837746 208.631153 149.367189 214.469315 119.396976 Z M 84.897408 165.969922 C 87.79443 165.969922 89.338529 169.616935 87.470905 172.013964 C 78.559252 183.425586 65.191772 190.690201 51.441944 190.690201 C 37.23624 190.690201 31.265726 181.984428 28.368704 170.513983 C 27.795181 168.219894 29.44222 165.969922 31.648074 165.969922 Z M 194.35192 165.969922 C 196.557775 165.969922 198.204813 168.219894 197.631291 170.513983 C 194.734268 181.984428 188.763755 190.690201 174.55805 190.690201 C 160.808222 190.690201 147.440742 183.425586 138.529089 172.013964 C 136.661466 169.616935 138.205564 165.969922 141.102587 165.969922 Z M 51.45665 183.631466 C 60.530066 183.631466 69.67701 179.763867 76.956331 173.028657 L 36.51566 173.028657 C 39.324449 180.587386 43.76557 183.631466 51.45665 183.631466 Z M 174.55805 183.631466 C 182.24913 183.631466 186.675545 180.587386 189.484334 173.028657 L 149.043664 173.028657 C 156.322984 179.763867 165.484634 183.631466 174.55805 183.631466 Z M 95.764919 179.469753 L 101.47073 183.631466 C 103.044239 184.77851 103.411882 186.984365 102.264837 188.557875 C 101.57367 189.499039 100.500154 190.013739 99.397226 190.013739 C 98.676647 190.013739 97.956068 189.793153 97.323723 189.337277 L 91.617912 185.19027 C 90.044402 184.043225 89.691465 181.837371 90.83851 180.263861 C 91.412032 179.469753 92.235551 178.984465 93.132599 178.852114 C 94.014941 178.705057 94.970811 178.896231 95.764919 179.469753 Z M 135.161484 180.263861 C 136.308529 181.837371 135.955592 184.043225 134.382082 185.19027 L 128.676271 189.337277 C 128.043926 189.793153 127.323347 190.013739 126.602768 190.013739 C 125.499841 190.013739 124.426325 189.499039 123.735157 188.557875 C 122.588112 186.984365 122.941049 184.77851 124.514559 183.631466 L 130.235076 179.469753 C 131.029183 178.896231 131.970348 178.705057 132.867395 178.852114 C 133.749737 178.984465 134.587962 179.469753 135.161484 180.263861 Z M 85.220933 190.807847 L 89.36794 196.513658 C 90.514984 198.087167 90.176753 200.307728 88.588538 201.440066 C 87.970899 201.895943 87.235614 202.116529 86.52974 202.116529 C 85.426813 202.116529 84.353297 201.616535 83.662129 200.660664 L 79.515122 194.954854 C 78.353372 193.366638 78.706309 191.175489 80.294524 190.028445 C 81.073926 189.454922 82.029797 189.249043 82.912138 189.3961 C 83.809186 189.528451 84.647411 190.013739 85.220933 190.807847 Z M 145.70547 190.028445 C 147.293685 191.175489 147.646622 193.366638 146.484872 194.954854 L 142.337865 200.660664 C 141.646697 201.616535 140.573181 202.116529 139.470254 202.116529 C 138.76438 202.116529 138.043801 201.895943 137.411456 201.440066 C 135.837947 200.307728 135.48501 198.087167 136.632054 196.513658 L 140.779061 190.807847 C 141.352583 190.013739 142.190808 189.528451 143.07315 189.3961 C 143.970198 189.249043 144.926068 189.454922 145.70547 190.028445 Z M 71.691691 198.322458 L 73.88284 205.028257 C 74.485773 206.881175 73.47108 208.88115 71.618162 209.484083 C 71.25052 209.601729 70.868172 209.660552 70.515235 209.660552 C 69.029959 209.660552 67.647624 208.704681 67.162336 207.219406 L 64.971187 200.498902 C 64.368253 198.645984 65.397652 196.660715 67.25057 196.057781 C 67.706446 195.896018 68.177029 195.851901 68.632905 195.881313 C 70.015241 195.998958 71.235814 196.925417 71.691691 198.322458 Z M 158.749424 196.043075 C 160.602342 196.646009 161.631741 198.645984 161.028808 200.498902 L 158.837659 207.219406 C 158.367076 208.704681 156.970035 209.660552 155.484759 209.660552 C 155.117117 209.660552 154.749475 209.601729 154.381832 209.484083 C 152.54362 208.88115 151.514221 206.881175 152.117155 205.028257 L 154.308304 198.322458 C 154.76418 196.925417 155.984753 196.013664 157.367089 195.881313 C 157.822965 195.851901 158.293548 195.896018 158.749424 196.043075 Z M 56.500704 201.278304 L 56.500704 208.337039 C 56.500704 210.292897 54.927195 211.881112 52.971337 211.881112 C 51.015479 211.881112 49.441969 210.292897 49.441969 208.337039 L 49.441969 201.278304 C 49.441969 199.322446 51.015479 197.748936 52.971337 197.748936 C 54.927195 197.748936 56.500704 199.322446 56.500704 201.278304 Z M 176.558025 201.278304 L 176.558025 208.337039 C 176.558025 210.292897 174.984515 211.881112 173.028657 211.881112 C 171.0728 211.881112 169.49929 210.292897 169.49929 208.337039 L 169.49929 201.278304 C 169.49929 199.322446 171.0728 197.748936 173.028657 197.748936 C 174.984515 197.748936 176.558025 199.322446 176.558025 201.278304 Z M 176.558025 201.278304 " transform="matrix(0.265628,0,0,0.265628,1.984,1.984)"/>
<path style=" stroke:none;fill-rule:nonzero;fill:rgb(0%,0%,0%);fill-opacity:1;" d="M 25.65625 5.734375 C 25.640625 5.734375 25.621094 5.738281 25.601562 5.738281 C 21.761719 6.03125 18.871094 9.589844 18.867188 15.890625 C 18.867188 19.785156 24.183594 29.210938 29.445312 38.132812 C 29.621094 38.433594 29.902344 38.566406 30.179688 38.566406 C 30.625 38.566406 31.0625 38.222656 31.0625 37.660156 C 31.003906 16.109375 30.292969 12.964844 26.394531 6.1875 C 26.238281 5.917969 25.957031 5.734375 25.65625 5.734375 Z M 38.335938 5.734375 C 38.039062 5.734375 37.761719 5.914062 37.605469 6.175781 C 33.628906 12.847656 32.988281 16.09375 32.9375 37.660156 C 32.9375 38.222656 33.375 38.566406 33.820312 38.566406 C 34.097656 38.566406 34.378906 38.433594 34.554688 38.132812 C 39.816406 29.214844 45.132812 19.789062 45.132812 15.890625 C 45.128906 9.582031 42.234375 6.027344 38.390625 5.738281 C 38.371094 5.738281 38.351562 5.734375 38.335938 5.734375 Z M 38.882812 7.703125 C 41.597656 8.296875 43.253906 11.355469 43.257812 15.890625 C 43.257812 19.042969 38.289062 28 34.832031 33.953125 C 34.953125 16.398438 35.699219 13.160156 38.882812 7.703125 Z M 25.097656 7.703125 C 28.289062 13.363281 29.042969 16.621094 29.167969 33.949219 C 25.710938 27.996094 20.742188 19.042969 20.742188 15.890625 C 20.746094 11.367188 22.394531 8.308594 25.097656 7.703125 Z M 11.523438 14.179688 C 11.304688 14.179688 11.082031 14.25 10.902344 14.402344 C 5.5625 18.960938 7.632812 28.191406 10.726562 31.3125 C 12.582031 33.140625 19.039062 36.238281 25.851562 40.300781 C 26.019531 40.398438 26.191406 40.441406 26.355469 40.441406 C 27.023438 40.441406 27.570312 39.734375 27.175781 39.082031 L 12.355469 14.632812 C 12.175781 14.339844 11.851562 14.179688 11.523438 14.179688 Z M 52.476562 14.179688 C 52.148438 14.179688 51.824219 14.339844 51.644531 14.632812 L 36.824219 39.082031 C 36.429688 39.734375 36.976562 40.441406 37.644531 40.441406 C 37.808594 40.441406 37.980469 40.398438 38.148438 40.300781 C 44.960938 36.238281 51.417969 33.140625 53.273438 31.3125 C 56.367188 28.191406 58.4375 18.960938 53.097656 14.402344 C 52.921875 14.25 52.695312 14.179688 52.476562 14.179688 Z M 11.351562 16.597656 L 23.617188 36.828125 C 22.167969 36.003906 20.765625 35.230469 19.46875 34.511719 C 16.152344 32.675781 13.019531 30.941406 12.058594 29.992188 C 10.710938 28.632812 9.355469 25.3125 9.496094 21.835938 C 9.5625 20.300781 9.949219 18.246094 11.351562 16.597656 Z M 52.648438 16.597656 C 54.050781 18.246094 54.4375 20.300781 54.5 21.835938 C 54.644531 25.3125 53.289062 28.632812 51.953125 29.976562 C 50.980469 30.941406 47.847656 32.675781 44.53125 34.511719 C 43.234375 35.230469 41.832031 36.003906 40.382812 36.828125 Z M 3.890625 31.0625 C 3.363281 31.0625 2.878906 31.464844 2.925781 32.003906 C 3.726562 41.605469 10.628906 44.195312 15.378906 44.195312 L 24.472656 44.195312 C 25.445312 44.195312 25.800781 43.03125 24.96875 42.570312 L 4.382812 31.191406 C 4.222656 31.101562 4.054688 31.0625 3.890625 31.0625 Z M 60.109375 31.0625 C 59.945312 31.0625 59.777344 31.101562 59.617188 31.191406 L 39.03125 42.570312 C 38.199219 43.03125 38.554688 44.195312 39.527344 44.195312 L 48.621094 44.195312 C 53.371094 44.195312 60.273438 41.605469 61.074219 32.003906 C 61.121094 31.464844 60.636719 31.0625 60.109375 31.0625 Z M 5.046875 33.699219 L 20.636719 42.316406 L 15.378906 42.316406 C 13.253906 42.316406 6.597656 41.660156 5.046875 33.699219 Z M 58.953125 33.699219 C 57.402344 41.660156 50.746094 42.316406 48.621094 42.316406 L 43.363281 42.316406 Z M 10.390625 46.070312 C 9.804688 46.070312 9.367188 46.667969 9.519531 47.277344 C 10.289062 50.324219 11.875 52.636719 15.648438 52.636719 C 19.300781 52.636719 22.851562 50.707031 25.21875 47.675781 C 25.714844 47.039062 25.304688 46.070312 24.535156 46.070312 Z M 39.464844 46.070312 C 38.695312 46.070312 38.285156 47.039062 38.78125 47.675781 C 41.148438 50.707031 44.699219 52.636719 48.351562 52.636719 C 52.125 52.636719 53.710938 50.324219 54.480469 47.277344 C 54.632812 46.667969 54.195312 46.070312 53.609375 46.070312 Z M 11.683594 47.945312 L 22.425781 47.945312 C 20.492188 49.734375 18.0625 50.761719 15.652344 50.761719 C 13.609375 50.761719 12.429688 49.953125 11.683594 47.945312 Z M 41.574219 47.945312 L 52.316406 47.945312 C 51.570312 49.953125 50.394531 50.761719 48.351562 50.761719 C 45.941406 50.761719 43.507812 49.734375 41.574219 47.945312 Z M 26.722656 49.492188 C 26.484375 49.527344 26.265625 49.65625 26.113281 49.867188 C 25.808594 50.285156 25.902344 50.871094 26.320312 51.175781 L 27.835938 52.277344 C 28.003906 52.398438 28.195312 52.457031 28.386719 52.457031 C 28.679688 52.457031 28.964844 52.320312 29.148438 52.070312 C 29.453125 51.652344 29.355469 51.066406 28.9375 50.761719 L 27.421875 49.65625 C 27.210938 49.503906 26.957031 49.453125 26.722656 49.492188 Z M 37.277344 49.492188 C 37.039062 49.453125 36.789062 49.503906 36.578125 49.65625 L 35.058594 50.761719 C 34.640625 51.066406 34.546875 51.652344 34.851562 52.070312 C 35.035156 52.320312 35.320312 52.457031 35.613281 52.457031 C 35.804688 52.457031 35.996094 52.398438 36.164062 52.277344 L 37.679688 51.175781 C 38.097656 50.871094 38.191406 50.285156 37.886719 49.867188 C 37.734375 49.65625 37.511719 49.527344 37.277344 49.492188 Z M 24.007812 52.292969 C 23.773438 52.253906 23.519531 52.308594 23.3125 52.460938 C 22.890625 52.765625 22.796875 53.347656 23.105469 53.769531 L 24.207031 55.285156 C 24.390625 55.539062 24.675781 55.671875 24.96875 55.671875 C 25.15625 55.671875 25.351562 55.613281 25.515625 55.492188 C 25.9375 55.191406 26.027344 54.601562 25.722656 54.183594 L 24.621094 52.667969 C 24.46875 52.457031 24.246094 52.328125 24.007812 52.292969 Z M 39.988281 52.292969 C 39.753906 52.328125 39.53125 52.457031 39.378906 52.667969 L 38.277344 54.183594 C 37.972656 54.601562 38.066406 55.191406 38.484375 55.492188 C 38.652344 55.613281 38.84375 55.671875 39.03125 55.671875 C 39.324219 55.671875 39.609375 55.539062 39.792969 55.285156 L 40.894531 53.769531 C 41.203125 53.347656 41.109375 52.765625 40.6875 52.460938 C 40.480469 52.308594 40.226562 52.253906 39.988281 52.292969 Z M 20.214844 54.015625 C 20.09375 54.007812 19.96875 54.019531 19.847656 54.0625 C 19.355469 54.222656 19.082031 54.75 19.242188 55.242188 L 19.824219 57.027344 C 19.953125 57.421875 20.320312 57.675781 20.714844 57.675781 C 20.808594 57.675781 20.910156 57.660156 21.007812 57.628906 C 21.5 57.46875 21.769531 56.9375 21.609375 56.445312 L 21.027344 54.664062 C 20.90625 54.292969 20.582031 54.046875 20.214844 54.015625 Z M 43.785156 54.015625 C 43.417969 54.050781 43.09375 54.292969 42.972656 54.664062 L 42.390625 56.445312 C 42.230469 56.9375 42.503906 57.46875 42.992188 57.628906 C 43.089844 57.660156 43.1875 57.675781 43.285156 57.675781 C 43.679688 57.675781 44.050781 57.421875 44.175781 57.027344 L 44.757812 55.242188 C 44.917969 54.75 44.644531 54.21875 44.152344 54.058594 C 44.03125 54.019531 43.90625 54.007812 43.785156 54.015625 Z M 16.054688 54.511719 C 15.535156 54.511719 15.117188 54.929688 15.117188 55.449219 L 15.117188 57.324219 C 15.117188 57.84375 15.535156 58.265625 16.054688 58.265625 C 16.574219 58.265625 16.992188 57.84375 16.992188 57.324219 L 16.992188 55.449219 C 16.992188 54.929688 16.574219 54.511719 16.054688 54.511719 Z M 47.945312 54.511719 C 47.425781 54.511719 47.007812 54.929688 47.007812 55.449219 L 47.007812 57.324219 C 47.007812 57.84375 47.425781 58.265625 47.945312 58.265625 C 48.464844 58.265625 48.882812 57.84375 48.882812 57.324219 L 48.882812 55.449219 C 48.882812 54.929688 48.464844 54.511719 47.945312 54.511719 Z M 47.945312 54.511719 "/>
</g>
</svg>
